{
  "accessors": [
    {
      "bufferView": 2,
      "componentType": 5126,
      "count": 65532,
      "max": [
        0.9485549926757813,
        0.6351128816604614,
        0.702244222164154
      ],
      "min": [
        -0.9081485867500305,
        -0.9040271639823914,
        0.1554322987794876
      ],
      "type": "VEC3"
    },
    {
      "bufferView": 2,
      "byteOffset": 786384,
      "componentType": 5126,
      "count": 65532,
      "max": [
        1.0,
        1.0,
        1.0
      ],
      "min": [
        -1.0,
        -1.0,
        -0.9994733929634094
      ],
      "type": "VEC3"
    },
    {
      "bufferView": 3,
      "componentType": 5126,
      "count": 65532,
      "max": [
        1.0,
        0.9999985098838806,
        0.9999690055847168,
        1.0
      ],
      "min": [
        -0.9999998807907104,
        -0.9999695420265198,
        -0.999971330165863,
        -1.0
      ],
      "type": "VEC4"
    },
    {
      "bufferView": 1,
      "componentType": 5126,
      "count": 65532,
      "max": [
        0.9999744892120361,
        0.9997304677963257
      ],
      "min": [
        7.515701872762293e-05,
        0.003109914483502507
      ],
      "type": "VEC2"
    },
    {
      "bufferView": 1,
      "byteOffset": 524256,
      "componentType": 5126,
      "count": 65532,
      "max": [
        0.9999744892120361,
        0.9997304677963257
      ],
      "min": [
        7.515701872762293e-05,
        0.003109914483502507
      ],
      "type": "VEC2"
    },
    {
      "bufferView": 1,
      "byteOffset": 1048512,
      "componentType": 5126,
      "count": 65532,
      "max": [
        0.9999744892120361,
        0.9997304677963257
      ],
      "min": [
        7.515701872762293e-05,
        0.003109914483502507
      ],
      "type": "VEC2"
    },
    {
      "bufferView": 1,
      "byteOffset": 1572768,
      "componentType": 5126,
      "count": 65532,
      "max": [
        0.9999744892120361,
        0.9997304677963257
      ],
      "min": [
        7.515701872762293e-05,
        0.003109914483502507
      ],
      "type": "VEC2"
    },
    {
      "bufferView": 1,
      "byteOffset": 2097024,
      "componentType": 5126,
      "count": 65532,
      "max": [
        0.9999744892120361,
        0.9997304677963257
      ],
      "min": [
        7.515701872762293e-05,
        0.003109914483502507
      ],
      "type": "VEC2"
    },
    {
      "bufferView": 0,
      "componentType": 5125,
      "count": 341730,
      "type": "SCALAR"
    },
    {
      "bufferView": 2,
      "byteOffset": 1572768,
      "componentType": 5126,
      "count": 65532,
      "max": [
        0.8302220106124878,
        0.7542571425437927,
        0.5392901301383972
      ],
      "min": [
        -0.9110460877418518,
        -0.9040271639823914,
        -0.15842247009277344
      ],
      "type": "VEC3"
    },
    {
      "bufferView": 2,
      "byteOffset": 2359152,
      "componentType": 5126,
      "count": 65532,
      "max": [
        0.9999690055847168,
        1.0,
        0.9999690055847168
      ],
      "min": [
        -0.9999380111694336,
        -1.0,
        -0.9999690055847168
      ],
      "type": "VEC3"
    },
    {
      "bufferView": 3,
      "byteOffset": 1048512,
      "componentType": 5126,
      "count": 65532,
      "max": [
        1.0,
        0.9999609589576721,
        0.9999986290931702,
        1.0
      ],
      "min": [
        -0.9999923706054688,
        -0.9999321103096008,
        -1.0,
        -1.0
      ],
      "type": "VEC4"
    },
    {
      "bufferView": 1,
      "byteOffset": 2621280,
      "componentType": 5126,
      "count": 65532,
      "max": [
        0.9999744892120361,
        0.9997304677963257
      ],
      "min": [
        7.515701872762293e-05,
        0.001889463048428297
      ],
      "type": "VEC2"
    },
    {
      "bufferView": 1,
      "byteOffset": 3145536,
      "componentType": 5126,
      "count": 65532,
      "max": [
        0.9999744892120361,
        0.9997304677963257
      ],
      "min": [
        7.515701872762293e-05,
        0.001889463048428297
      ],
      "type": "VEC2"
    },
    {
      "bufferView": 1,
      "byteOffset": 3669792,
      "componentType": 5126,
      "count": 65532,
      "max": [
        0.9999744892120361,
        0.9997304677963257
      ],
      "min": [
        7.515701872762293e-05,
        0.001889463048428297
      ],
      "type": "VEC2"
    },
    {
      "bufferView": 1,
      "byteOffset": 4194048,
      "componentType": 5126,
      "count": 65532,
      "max": [
        0.9999744892120361,
        0.9997304677963257
      ],
      "min": [
        7.515701872762293e-05,
        0.001889463048428297
      ],
      "type": "VEC2"
    },
    {
      "bufferView": 1,
      "byteOffset": 4718304,
      "componentType": 5126,
      "count": 65532,
      "max": [
        0.9999744892120361,
        0.9997304677963257
      ],
      "min": [
        7.515701872762293e-05,
        0.001889463048428297
      ],
      "type": "VEC2"
    },
    {
      "bufferView": 0,
      "byteOffset": 1366920,
      "componentType": 5125,
      "count": 318888,
      "type": "SCALAR"
    },
    {
      "bufferView": 2,
      "byteOffset": 3145536,
      "componentType": 5126,
      "count": 65532,
      "max": [
        0.7856008410453796,
        0.8800076842308044,
        0.43498092889785767
      ],
      "min": [
        -0.8729152679443359,
        -0.902984082698822,
        -0.5158553123474121
      ],
      "type": "VEC3"
    },
    {
      "bufferView": 2,
      "byteOffset": 3931920,
      "componentType": 5126,
      "count": 65532,
      "max": [
        0.9999690055847168,
        1.0,
        0.9999380111694336
      ],
      "min": [
        -0.9999380111694336,
        -1.0,
        -0.9999380111694336
      ],
      "type": "VEC3"
    },
    {
      "bufferView": 3,
      "byteOffset": 2097024,
      "componentType": 5126,
      "count": 65532,
      "max": [
        0.9999969601631165,
        0.9999967217445374,
        0.9999998807907104,
        1.0
      ],
      "min": [
        -0.9999725222587585,
        -0.9999547600746155,
        -0.9999898672103882,
        -1.0
      ],
      "type": "VEC4"
    },
    {
      "bufferView": 1,
      "byteOffset": 5242560,
      "componentType": 5126,
      "count": 65532,
      "max": [
        0.9999744892120361,
        0.9997304677963257
      ],
      "min": [
        7.515701872762293e-05,
        0.004574455786496401
      ],
      "type": "VEC2"
    },
    {
      "bufferView": 1,
      "byteOffset": 5766816,
      "componentType": 5126,
      "count": 65532,
      "max": [
        0.9999744892120361,
        0.9997304677963257
      ],
      "min": [
        7.515701872762293e-05,
        0.004574455786496401
      ],
      "type": "VEC2"
    },
    {
      "bufferView": 1,
      "byteOffset": 6291072,
      "componentType": 5126,
      "count": 65532,
      "max": [
        0.9999744892120361,
        0.9997304677963257
      ],
      "min": [
        7.515701872762293e-05,
        0.004574455786496401
      ],
      "type": "VEC2"
    },
    {
      "bufferView": 1,
      "byteOffset": 6815328,
      "componentType": 5126,
      "count": 65532,
      "max": [
        0.9999744892120361,
        0.9997304677963257
      ],
      "min": [
        7.515701872762293e-05,
        0.004574455786496401
      ],
      "type": "VEC2"
    },
    {
      "bufferView": 1,
      "byteOffset": 7339584,
      "componentType": 5126,
      "count": 65532,
      "max": [
        0.9999744892120361,
        0.9997304677963257
      ],
      "min": [
        7.515701872762293e-05,
        0.004574455786496401
      ],
      "type": "VEC2"
    },
    {
      "bufferView": 0,
      "byteOffset": 2642472,
      "componentType": 5125,
      "count": 323895,
      "type": "SCALAR"
    },
    {
      "bufferView": 2,
      "byteOffset": 4718304,
      "componentType": 5126,
      "count": 65532,
      "max": [
        0.7859485149383545,
        0.8482513427734375,
        -0.09351897239685059
      ],
      "min": [
        -0.40213313698768616,
        -0.8719230890274048,
        -0.7033800482749939
      ],
      "type": "VEC3"
    },
    {
      "bufferView": 2,
      "byteOffset": 5504688,
      "componentType": 5126,
      "count": 65532,
      "max": [
        0.9999690055847168,
        0.9999690055847168,
        0.9999380111694336
      ],
      "min": [
        -0.9999690055847168,
        -1.0,
        -1.0
      ],
      "type": "VEC3"
    },
    {
      "bufferView": 3,
      "byteOffset": 3145536,
      "componentType": 5126,
      "count": 65532,
      "max": [
        0.9999998211860657,
        0.9999983906745911,
        0.9999867677688599,
        1.0
      ],
      "min": [
        -0.9998956918716431,
        -0.9999547600746155,
        -0.9999695420265198,
        -1.0
      ],
      "type": "VEC4"
    },
    {
      "bufferView": 1,
      "byteOffset": 7863840,
      "componentType": 5126,
      "count": 65532,
      "max": [
        0.9999744892120361,
        0.9999745488166809
      ],
      "min": [
        0.005935372784733772,
        0.003109914483502507
      ],
      "type": "VEC2"
    },
    {
      "bufferView": 1,
      "byteOffset": 8388096,
      "componentType": 5126,
      "count": 65532,
      "max": [
        0.9999744892120361,
        0.9999745488166809
      ],
      "min": [
        0.005935372784733772,
        0.003109914483502507
      ],
      "type": "VEC2"
    },
    {
      "bufferView": 1,
      "byteOffset": 8912352,
      "componentType": 5126,
      "count": 65532,
      "max": [
        0.9999744892120361,
        0.9999745488166809
      ],
      "min": [
        0.005935372784733772,
        0.003109914483502507
      ],
      "type": "VEC2"
    },
    {
      "bufferView": 1,
      "byteOffset": 9436608,
      "componentType": 5126,
      "count": 65532,
      "max": [
        0.9999744892120361,
        0.9999745488166809
      ],
      "min": [
        0.005935372784733772,
        0.003109914483502507
      ],
      "type": "VEC2"
    },
    {
      "bufferView": 1,
      "byteOffset": 9960864,
      "componentType": 5126,
      "count": 65532,
      "max": [
        0.9999744892120361,
        0.9999745488166809
      ],
      "min": [
        0.005935372784733772,
        0.003109914483502507
      ],
      "type": "VEC2"
    },
    {
      "bufferView": 0,
      "byteOffset": 3938052,
      "componentType": 5125,
      "count": 327042,
      "type": "SCALAR"
    },
    {
      "bufferView": 2,
      "byteOffset": 6291072,
      "componentType": 5126,
      "count": 65532,
      "max": [
        0.7849054336547852,
        0.898435652256012,
        0.08774721622467041
      ],
      "min": [
        -0.887982189655304,
        -0.8719230890274048,
        -0.7044231295585632
      ],
      "type": "VEC3"
    },
    {
      "bufferView": 2,
      "byteOffset": 7077456,
      "componentType": 5126,
      "count": 65532,
      "max": [
        0.9999690055847168,
        0.9999690055847168,
        0.9999690055847168
      ],
      "min": [
        -0.9999690055847168,
        -1.0,
        -1.0
      ],
      "type": "VEC3"
    },
    {
      "bufferView": 3,
      "byteOffset": 4194048,
      "componentType": 5126,
      "count": 65532,
      "max": [
        0.999996542930603,
        0.9999983906745911,
        0.9999613165855408,
        1.0
      ],
      "min": [
        -1.0,
        -0.9999925494194031,
        -0.9999811053276062,
        -1.0
      ],
      "type": "VEC4"
    },
    {
      "bufferView": 1,
      "byteOffset": 10485120,
      "componentType": 5126,
      "count": 65532,
      "max": [
        0.9999744892120361,
        0.9999745488166809
      ],
      "min": [
        7.515701872762293e-05,
        0.007259448990225792
      ],
      "type": "VEC2"
    },
    {
      "bufferView": 1,
      "byteOffset": 11009376,
      "componentType": 5126,
      "count": 65532,
      "max": [
        0.9999744892120361,
        0.9999745488166809
      ],
      "min": [
        7.515701872762293e-05,
        0.007259448990225792
      ],
      "type": "VEC2"
    },
    {
      "bufferView": 1,
      "byteOffset": 11533632,
      "componentType": 5126,
      "count": 65532,
      "max": [
        0.9999744892120361,
        0.9999745488166809
      ],
      "min": [
        7.515701872762293e-05,
        0.007259448990225792
      ],
      "type": "VEC2"
    },
    {
      "bufferView": 1,
      "byteOffset": 12057888,
      "componentType": 5126,
      "count": 65532,
      "max": [
        0.9999744892120361,
        0.9999745488166809
      ],
      "min": [
        7.515701872762293e-05,
        0.007259448990225792
      ],
      "type": "VEC2"
    },
    {
      "bufferView": 1,
      "byteOffset": 12582144,
      "componentType": 5126,
      "count": 65532,
      "max": [
        0.9999744892120361,
        0.9999745488166809
      ],
      "min": [
        7.515701872762293e-05,
        0.007259448990225792
      ],
      "type": "VEC2"
    },
    {
      "bufferView": 0,
      "byteOffset": 5246220,
      "componentType": 5125,
      "count": 325395,
      "type": "SCALAR"
    },
    {
      "bufferView": 2,
      "byteOffset": 7863840,
      "componentType": 5126,
      "count": 65532,
      "max": [
        0.7756335139274597,
        0.9034193158149719,
        0.2828054130077362
      ],
      "min": [
        -0.9293581247329712,
        -0.8948711156845093,
        -0.18762904405593872
      ],
      "type": "VEC3"
    },
    {
      "bufferView": 2,
      "byteOffset": 8650224,
      "componentType": 5126,
      "count": 65532,
      "max": [
        1.0,
        1.0,
        0.9999690055847168
      ],
      "min": [
        -0.9999690055847168,
        -0.9999380111694336,
        -0.9998451471328735
      ],
      "type": "VEC3"
    },
    {
      "bufferView": 3,
      "byteOffset": 5242560,
      "componentType": 5126,
      "count": 65532,
      "max": [
        0.9999980330467224,
        0.9999870657920837,
        0.9999794960021973,
        1.0
      ],
      "min": [
        -0.9999690055847168,
        -0.9999816417694092,
        -0.9999999403953552,
        -1.0
      ],
      "type": "VEC4"
    },
    {
      "bufferView": 1,
      "byteOffset": 13106400,
      "componentType": 5126,
      "count": 65532,
      "max": [
        0.9999744892120361,
        0.9999745488166809
      ],
      "min": [
        0.00031933269929140806,
        0.001889463048428297
      ],
      "type": "VEC2"
    },
    {
      "bufferView": 1,
      "byteOffset": 13630656,
      "componentType": 5126,
      "count": 65532,
      "max": [
        0.9999744892120361,
        0.9999745488166809
      ],
      "min": [
        0.00031933269929140806,
        0.001889463048428297
      ],
      "type": "VEC2"
    },
    {
      "bufferView": 1,
      "byteOffset": 14154912,
      "componentType": 5126,
      "count": 65532,
      "max": [
        0.9999744892120361,
        0.9999745488166809
      ],
      "min": [
        0.00031933269929140806,
        0.001889463048428297
      ],
      "type": "VEC2"
    },
    {
      "bufferView": 1,
      "byteOffset": 14679168,
      "componentType": 5126,
      "count": 65532,
      "max": [
        0.9999744892120361,
        0.9999745488166809
      ],
      "min": [
        0.00031933269929140806,
        0.001889463048428297
      ],
      "type": "VEC2"
    },
    {
      "bufferView": 1,
      "byteOffset": 15203424,
      "componentType": 5126,
      "count": 65532,
      "max": [
        0.9999744892120361,
        0.9999745488166809
      ],
      "min": [
        0.00031933269929140806,
        0.001889463048428297
      ],
      "type": "VEC2"
    },
    {
      "bufferView": 0,
      "byteOffset": 6547800,
      "componentType": 5125,
      "count": 336720,
      "type": "SCALAR"
    },
    {
      "bufferView": 2,
      "byteOffset": 9436608,
      "componentType": 5126,
      "count": 50529,
      "max": [
        0.8219931721687317,
        0.8658679723739624,
        0.42744746804237366
      ],
      "min": [
        -0.950219988822937,
        -0.902984082698822,
        -0.021082036197185516
      ],
      "type": "VEC3"
    },
    {
      "bufferView": 2,
      "byteOffset": 10042956,
      "componentType": 5126,
      "count": 50529,
      "max": [
        0.9998451471328735,
        0.9999690055847168,
        0.9999690055847168
      ],
      "min": [
        -0.9998451471328735,
        -1.0,
        -0.9991022348403931
      ],
      "type": "VEC3"
    },
    {
      "bufferView": 3,
      "byteOffset": 6291072,
      "componentType": 5126,
      "count": 50529,
      "max": [
        0.9999901056289673,
        0.9999693036079407,
        1.0,
        1.0
      ],
      "min": [
        -0.9999976754188538,
        -0.9999974966049194,
        -1.0,
        -1.0
      ],
      "type": "VEC4"
    },
    {
      "bufferView": 1,
      "byteOffset": 15727680,
      "componentType": 5126,
      "count": 50529,
      "max": [
        0.9999744892120361,
        0.9999745488166809
      ],
      "min": [
        0.00031933269929140806,
        0.00042492151260375977
      ],
      "type": "VEC2"
    },
    {
      "bufferView": 1,
      "byteOffset": 16131912,
      "componentType": 5126,
      "count": 50529,
      "max": [
        0.9999744892120361,
        0.9999745488166809
      ],
      "min": [
        0.00031933269929140806,
        0.00042492151260375977
      ],
      "type": "VEC2"
    },
    {
      "bufferView": 1,
      "byteOffset": 16536144,
      "componentType": 5126,
      "count": 50529,
      "max": [
        0.9999744892120361,
        0.9999745488166809
      ],
      "min": [
        0.00031933269929140806,
        0.00042492151260375977
      ],
      "type": "VEC2"
    },
    {
      "bufferView": 1,
      "byteOffset": 16940376,
      "componentType": 5126,
      "count": 50529,
      "max": [
        0.9999744892120361,
        0.9999745488166809
      ],
      "min": [
        0.00031933269929140806,
        0.00042492151260375977
      ],
      "type": "VEC2"
    },
    {
      "bufferView": 1,
      "byteOffset": 17344608,
      "componentType": 5126,
      "count": 50529,
      "max": [
        0.9999744892120361,
        0.9999745488166809
      ],
      "min": [
        0.00031933269929140806,
        0.00042492151260375977
      ],
      "type": "VEC2"
    },
    {
      "bufferView": 0,
      "byteOffset": 7894680,
      "componentType": 5125,
      "count": 237834,
      "type": "SCALAR"
    }
  ],
  "asset": {
    "extras": {
      "author": "restore50 (https://sketchfab.com/restore50)",
      "license": "CC-BY-4.0 (http://creativecommons.org/licenses/by/4.0/)",
      "source": "https://sketchfab.com/3d-models/focused-student-with-laptop-f1cbc7e1803e4dadb6626b24c2cf1921",
      "title": "Focused Student with Laptop"
    },
    "generator": "Sketchfab-17.14.0",
    "version": "2.0"
  },
  "bufferViews": [
    {
      "buffer": 0,
      "byteLength": 8846016,
      "name": "floatBufferViews",
      "target": 34963
    },
    {
      "buffer": 0,
      "byteLength": 17748840,
      "byteOffset": 8846016,
      "byteStride": 8,
      "name": "floatBufferViews",
      "target": 34962
    },
    {
      "buffer": 0,
      "byteLength": 10649304,
      "byteOffset": 26594856,
      "byteStride": 12,
      "name": "floatBufferViews",
      "target": 34962
    },
    {
      "buffer": 0,
      "byteLength": 7099536,
      "byteOffset": 37244160,
      "byteStride": 16,
      "name": "floatBufferViews",
      "target": 34962
    }
  ],
  "buffers": [
    {
      "byteLength": 44343696,
      "uri": "scene.bin"
    }
  ],
  "images": [
    {
      "uri": "textures/material_0_baseColor.png"
    },
    {
      "uri": "textures/material_0_metallicRoughness.png"
    },
    {
      "uri": "textures/material_0_emissive.png"
    },
    {
      "uri": "textures/material_0_normal.png"
    }
  ],
  "materials": [
    {
      "doubleSided": true,
      "emissiveFactor": [
        1.0,
        1.0,
        1.0
      ],
      "emissiveTexture": {
        "index": 2,
        "texCoord": 2
      },
      "name": "material_0",
      "normalTexture": {
        "index": 3,
        "texCoord": 3
      },
      "pbrMetallicRoughness": {
        "baseColorTexture": {
          "index": 0
        },
        "metallicRoughnessTexture": {
          "index": 1,
          "texCoord": 1
        }
      }
    }
  ],
  "meshes": [
    {
      "name": "Object_0",
      "primitives": [
        {
          "attributes": {
            "NORMAL": 1,
            "POSITION": 0,
            "TANGENT": 2,
            "TEXCOORD_0": 3,
            "TEXCOORD_1": 4,
            "TEXCOORD_2": 5,
            "TEXCOORD_3": 6,
            "TEXCOORD_4": 7
          },
          "indices": 8,
          "material": 0,
          "mode": 4
        }
      ]
    },
    {
      "name": "Object_1",
      "primitives": [
        {
          "attributes": {
            "NORMAL": 10,
            "POSITION": 9,
            "TANGENT": 11,
            "TEXCOORD_0": 12,
            "TEXCOORD_1": 13,
            "TEXCOORD_2": 14,
            "TEXCOORD_3": 15,
            "TEXCOORD_4": 16
          },
          "indices": 17,
          "material": 0,
          "mode": 4
        }
      ]
    },
    {
      "name": "Object_2",
      "primitives": [
        {
          "attributes": {
            "NORMAL": 19,
            "POSITION": 18,
            "TANGENT": 20,
            "TEXCOORD_0": 21,
            "TEXCOORD_1": 22,
            "TEXCOORD_2": 23,
            "TEXCOORD_3": 24,
            "TEXCOORD_4": 25
          },
          "indices": 26,
          "material": 0,
          "mode": 4
        }
      ]
    },
    {
      "name": "Object_3",
      "primitives": [
        {
          "attributes": {
            "NORMAL": 28,
            "POSITION": 27,
            "TANGENT": 29,
            "TEXCOORD_0": 30,
            "TEXCOORD_1": 31,
            "TEXCOORD_2": 32,
            "TEXCOORD_3": 33,
            "TEXCOORD_4": 34
          },
          "indices": 35,
          "material": 0,
          "mode": 4
        }
      ]
    },
    {
      "name": "Object_4",
      "primitives": [
        {
          "attributes": {
            "NORMAL": 37,
            "POSITION": 36,
            "TANGENT": 38,
            "TEXCOORD_0": 39,
            "TEXCOORD_1": 40,
            "TEXCOORD_2": 41,
            "TEXCOORD_3": 42,
            "TEXCOORD_4": 43
          },
          "indices": 44,
          "material": 0,
          "mode": 4
        }
      ]
    },
    {
      "name": "Object_5",
      "primitives": [
        {
          "attributes": {
            "NORMAL": 46,
            "POSITION": 45,
            "TANGENT": 47,
            "TEXCOORD_0": 48,
            "TEXCOORD_1": 49,
            "TEXCOORD_2": 50,
            "TEXCOORD_3": 51,
            "TEXCOORD_4": 52
          },
          "indices": 53,
          "material": 0,
          "mode": 4
        }
      ]
    },
    {
      "name": "Object_6",
      "primitives": [
        {
          "attributes": {
            "NORMAL": 55,
            "POSITION": 54,
            "TANGENT": 56,
            "TEXCOORD_0": 57,
            "TEXCOORD_1": 58,
            "TEXCOORD_2": 59,
            "TEXCOORD_3": 60,
            "TEXCOORD_4": 61
          },
          "indices": 62,
          "material": 0,
          "mode": 4
        }
      ]
    }
  ],
  "nodes": [
    {
      "children": [
        1
      ],
      "matrix": [
        1.0,
        0.0,
        0.0,
        0.0,
        0.0,
        2.220446049250313e-16,
        -1.0,
        0.0,
        0.0,
        1.0,
        2.220446049250313e-16,
        0.0,
        0.0,
        0.0,
        0.0,
        1.0
      ],
      "name": "Sketchfab_model"
    },
    {
      "children": [
        2
      ],
      "name": "root"
    },
    {
      "children": [
        3
      ],
      "matrix": [
        1.0,
        0.0,
        0.0,
        0.0,
        0.0,
        2.220446049250313e-16,
        1.0,
        0.0,
        0.0,
        -1.0,
        2.220446049250313e-16,
        0.0,
        0.0,
        0.0,
        0.0,
        1.0
      ],
      "name": "GLTF_SceneRootNode"
    },
    {
      "children": [
        4
      ],
      "name": "_1"
    },
    {
      "children": [
        5,
        6,
        7,
        8,
        9,
        10,
        11
      ],
      "name": "mesh_0_0"
    },
    {
      "mesh": 0,
      "name": "Object_5"
    },
    {
      "mesh": 1,
      "name": "Object_6"
    },
    {
      "mesh": 2,
      "name": "Object_7"
    },
    {
      "mesh": 3,
      "name": "Object_8"
    },
    {
      "mesh": 4,
      "name": "Object_9"
    },
    {
      "mesh": 5,
      "name": "Object_10"
    },
    {
      "mesh": 6,
      "name": "Object_11"
    }
  ],
  "samplers": [
    {
      "magFilter": 9729,
      "minFilter": 9987,
      "wrapS": 10497,
      "wrapT": 10497
    }
  ],
  "scene": 0,
  "scenes": [
    {
      "name": "Sketchfab_Scene",
      "nodes": [
        0
      ]
    }
  ],
  "textures": [
    {
      "sampler": 0,
      "source": 0
    },
    {
      "sampler": 0,
      "source": 1
    },
    {
      "sampler": 0,
      "source": 2
    },
    {
      "sampler": 0,
      "source": 3
    }
  ]
}
